<svg width="99" height="59" viewBox="0 0 99 59" fill="none" xmlns="http://www.w3.org/2000/svg">
<g id="Isolation_Mode" clip-path="url(#clip0_13685_22821)">
<path id="Vector" d="M98.585 34.2049C98.585 34.2049 98.575 34.1549 98.565 34.1349C98.555 34.0949 98.545 34.0549 98.525 34.0149C98.515 33.9849 98.505 33.9649 98.495 33.9349C98.475 33.8949 98.455 33.8649 98.435 33.8349C98.425 33.8149 98.405 33.7849 98.385 33.7649C98.385 33.7549 98.365 33.7349 98.355 33.7249L85.805 17.8949C85.595 17.6349 85.285 17.4849 84.945 17.4849H82.215V16.3949C82.215 14.5849 80.745 13.1149 78.935 13.1149C77.125 13.1149 75.655 14.5849 75.655 16.3949V17.4849H72.105V1.38492C72.105 0.784922 71.615 0.294922 71.015 0.294922H1.98502C1.38502 0.294922 0.89502 0.784922 0.89502 1.38492V51.0549C0.89502 51.6549 1.38502 52.1449 1.98502 52.1449H15.985C16.515 55.8449 19.705 58.6949 23.545 58.6949C27.385 58.6949 30.575 55.8449 31.105 52.1449H73.565C74.095 55.8449 77.285 58.6949 81.125 58.6949C84.965 58.6949 88.155 55.8449 88.685 52.1449H97.495C98.095 52.1449 98.585 51.6549 98.585 51.0549V34.4049C98.585 34.3349 98.585 34.2649 98.565 34.2049H98.585ZM95.255 33.3149H77.925L77.865 19.6649H84.425L95.245 33.3149H95.255ZM78.955 15.3049C79.555 15.3049 80.045 15.7949 80.045 16.3949V17.4849H77.865V16.3949C77.865 15.7949 78.355 15.3049 78.955 15.3049ZM3.07502 2.47492H69.945V49.9649H31.115C30.585 46.2649 27.395 43.4149 23.555 43.4149C19.715 43.4149 16.525 46.2649 15.995 49.9649H3.07502V2.47492ZM23.545 56.5149C20.535 56.5149 18.085 54.0649 18.085 51.0549C18.085 48.0449 20.535 45.5949 23.545 45.5949C26.555 45.5949 29.005 48.0449 29.005 51.0549C29.005 54.0649 26.555 56.5149 23.545 56.5149ZM81.135 56.5149C78.125 56.5149 75.675 54.0649 75.675 51.0549C75.675 48.0449 78.125 45.5949 81.135 45.5949C84.145 45.5949 86.595 48.0449 86.595 51.0549C86.595 54.0649 84.145 56.5149 81.135 56.5149ZM88.695 49.9649C88.165 46.2649 84.975 43.4149 81.135 43.4149C77.295 43.4149 74.105 46.2649 73.575 49.9649H72.135V19.6649H75.685L75.755 34.4049C75.755 35.0049 76.245 35.4949 76.845 35.4949H96.425V49.9649H88.695Z" fill="#222935"/>
</g>
<defs>
<clipPath id="clip0_13685_22821">
<rect width="97.71" height="58.41" fill="white" transform="translate(0.89502 0.294922)"/>
</clipPath>
</defs>
</svg>
