<svg width="59" height="59" viewBox="0 0 59 59" fill="none" xmlns="http://www.w3.org/2000/svg">
<path id="Vector" d="M57.456 57.2374H50.7553V30.2101C53.7706 29.9139 56.1348 27.2078 56.1348 23.9228C56.1348 23.8689 56.1348 23.8151 56.1159 23.7612L51.3369 0.867107C51.2673 0.537259 50.9829 0.294922 50.6605 0.294922H42.1961C42.1961 0.294922 42.1834 0.294922 42.1771 0.294922H7.83907C7.51668 0.294922 7.23221 0.537259 7.16268 0.867107L2.38367 23.7612C2.37103 23.8151 2.36471 23.8689 2.36471 23.9228C2.36471 27.1674 4.67835 29.8466 7.63679 30.1966V57.2374H1.04353C0.664243 57.2374 0.354492 57.5673 0.354492 57.9712C0.354492 58.3751 0.664243 58.7049 1.04353 58.7049H57.456C57.8353 58.7049 58.1451 58.3751 58.1451 57.9712C58.1451 57.5673 57.8353 57.2374 57.456 57.2374ZM14.584 21.0148H23.4467L23.3203 23.8891C23.3203 23.8891 23.3203 23.9093 23.3203 23.9228C23.3203 26.5952 21.2784 28.7695 18.7688 28.7695C16.2592 28.7695 14.2427 26.6222 14.2174 23.9699L14.5777 21.0148H14.584ZM24.2874 1.76241L23.5099 19.5473H14.761L16.923 1.76241H24.2874ZM34.4902 26.878C35.489 28.8773 37.4613 30.237 39.7307 30.237C42.0001 30.237 43.9724 28.8705 44.9712 26.878C45.2809 27.504 45.6855 28.0627 46.1659 28.5407C46.1343 28.6215 46.1154 28.7157 46.1154 28.8099V50.526H27.7137L27.6315 29.9947C28.1498 30.1495 28.6935 30.237 29.2561 30.237C31.5255 30.237 33.4978 28.8705 34.4966 26.878H34.4902ZM44.2758 23.9632C44.2569 26.6154 42.2214 28.7695 39.7307 28.7695C37.2401 28.7695 35.1793 26.5952 35.1793 23.9228C35.1793 23.9093 35.1793 23.9026 35.1793 23.8891L35.0528 21.0148H43.9155L44.2758 23.9632ZM33.7949 23.9363C33.7949 26.602 31.7531 28.7695 29.2435 28.7695C26.7338 28.7695 24.7047 26.6087 24.692 23.943L24.8184 21.0215H33.6621L33.7886 23.943L33.7949 23.9363ZM24.8943 19.5473L25.6718 1.76241H32.834L33.6116 19.5473H24.9006H24.8943ZM26.2408 29.3619L26.3293 51.2665C26.3293 51.6704 26.639 52.0003 27.0183 52.0003H46.7981C47.1774 52.0003 47.4871 51.6704 47.4871 51.2665V29.5369C48.0624 29.8533 48.7008 30.0755 49.3646 30.1764V57.2442H24.6604V27.9281C25.1029 28.5003 25.6339 28.985 26.2344 29.3619H26.2408ZM50.2053 28.7695C47.6957 28.7695 45.6539 26.5952 45.6539 23.9228C45.6539 23.8891 45.6539 23.8622 45.6539 23.8286L45.3125 21.0148H54.1309L54.7568 23.9968C54.7188 26.6289 52.6897 28.7628 50.2117 28.7628L50.2053 28.7695ZM50.1105 1.76241L53.8275 19.5473H45.1355L42.9736 1.76241H50.1105ZM43.7385 19.5473H34.9896L34.2121 1.76241H41.5766L43.7385 19.5473ZM8.38904 1.76241H15.5259L13.364 19.5473H4.67835L8.38904 1.76241ZM3.7491 24.0036L4.37493 21.0215H13.1933L12.852 23.8353C12.852 23.8353 12.852 23.8959 12.852 23.9295C12.852 26.602 10.8101 28.7763 8.30054 28.7763C5.79093 28.7763 3.79335 26.6424 3.75542 24.0103L3.7491 24.0036ZM9.01486 30.1899C10.9745 29.9341 12.6434 28.6618 13.5284 26.878C14.5271 28.8773 16.4994 30.237 18.7688 30.237C20.5768 30.237 22.1951 29.3687 23.2823 28.0089V57.2442H9.01486V30.1899Z" fill="#222935"/>
</svg>
